<svg id="visual" viewBox="0 0 960 540" width="960" height="540" xmlns="http://www.w3.org/2000/svg" xmlns:xlink="http://www.w3.org/1999/xlink" version="1.1"><rect x="0" y="0" width="960" height="540" fill="#fff"></rect><path d="M775 0L749.5 22.5C724 45 673 90 673.2 135C673.3 180 724.7 225 706 270C687.3 315 598.7 360 590.3 405C582 450 654 495 690 517.5L726 540L0 540L0 517.5C0 495 0 450 0 405C0 360 0 315 0 270C0 225 0 180 0 135C0 90 0 45 0 22.5L0 0Z" fill="#1c6a70"></path><path d="M344 0L375.3 22.5C406.7 45 469.3 90 458.7 135C448 180 364 225 364.7 270C365.3 315 450.7 360 486.5 405C522.3 450 508.7 495 501.8 517.5L495 540L0 540L0 517.5C0 495 0 450 0 405C0 360 0 315 0 270C0 225 0 180 0 135C0 90 0 45 0 22.5L0 0Z" fill="#115b60"></path><path d="M163 0L168.3 22.5C173.7 45 184.3 90 185.3 135C186.3 180 177.7 225 188.2 270C198.7 315 228.3 360 254.8 405C281.3 450 304.7 495 316.3 517.5L328 540L0 540L0 517.5C0 495 0 450 0 405C0 360 0 315 0 270C0 225 0 180 0 135C0 90 0 45 0 22.5L0 0Z" fill="#044c51"></path></svg>