<svg id="visual" viewBox="0 0 960 540" width="960" height="540" xmlns="http://www.w3.org/2000/svg" xmlns:xlink="http://www.w3.org/1999/xlink" version="1.1"><rect x="0" y="0" width="960" height="540" fill="#fff"></rect><path d="M431 0L479.7 22.5C528.3 45 625.7 90 654.2 135C682.7 180 642.3 225 611.2 270C580 315 558 360 580.3 405C602.7 450 669.3 495 702.7 517.5L736 540L0 540L0 517.5C0 495 0 450 0 405C0 360 0 315 0 270C0 225 0 180 0 135C0 90 0 45 0 22.5L0 0Z" fill="#1c6a70"></path><path d="M527 0L533.8 22.5C540.7 45 554.3 90 549 135C543.7 180 519.3 225 500.7 270C482 315 469 360 450.3 405C431.7 450 407.3 495 395.2 517.5L383 540L0 540L0 517.5C0 495 0 450 0 405C0 360 0 315 0 270C0 225 0 180 0 135C0 90 0 45 0 22.5L0 0Z" fill="#115b60"></path><path d="M199 0L207.2 22.5C215.3 45 231.7 90 254 135C276.3 180 304.7 225 313 270C321.3 315 309.7 360 278.5 405C247.3 450 196.7 495 171.3 517.5L146 540L0 540L0 517.5C0 495 0 450 0 405C0 360 0 315 0 270C0 225 0 180 0 135C0 90 0 45 0 22.5L0 0Z" fill="#044c51"></path></svg>