<svg id="visual" viewBox="0 0 900 450" width="900" height="450" xmlns="http://www.w3.org/2000/svg" xmlns:xlink="http://www.w3.org/1999/xlink" version="1.1"><rect x="0" y="0" width="900" height="450" fill="#fff"></rect><path d="M493 0L496.2 18.8C499.3 37.7 505.7 75.3 504.7 112.8C503.7 150.3 495.3 187.7 497.3 225.2C499.3 262.7 511.7 300.3 540.2 337.8C568.7 375.3 613.3 412.7 635.7 431.3L658 450L0 450L0 431.3C0 412.7 0 375.3 0 337.8C0 300.3 0 262.7 0 225.2C0 187.7 0 150.3 0 112.8C0 75.3 0 37.7 0 18.8L0 0Z" fill="#1c6a70"></path><path d="M503 0L490.2 18.8C477.3 37.7 451.7 75.3 420.2 112.8C388.7 150.3 351.3 187.7 331.8 225.2C312.3 262.7 310.7 300.3 333 337.8C355.3 375.3 401.7 412.7 424.8 431.3L448 450L0 450L0 431.3C0 412.7 0 375.3 0 337.8C0 300.3 0 262.7 0 225.2C0 187.7 0 150.3 0 112.8C0 75.3 0 37.7 0 18.8L0 0Z" fill="#105c61"></path><path d="M291 0L295.8 18.8C300.7 37.7 310.3 75.3 287.2 112.8C264 150.3 208 187.7 209.5 225.2C211 262.7 270 300.3 272.2 337.8C274.3 375.3 219.7 412.7 192.3 431.3L165 450L0 450L0 431.3C0 412.7 0 375.3 0 337.8C0 300.3 0 262.7 0 225.2C0 187.7 0 150.3 0 112.8C0 75.3 0 37.7 0 18.8L0 0Z" fill="#034e53"></path></svg>