<svg id="visual" viewBox="0 0 900 450" width="900" height="450" xmlns="http://www.w3.org/2000/svg" xmlns:xlink="http://www.w3.org/1999/xlink" version="1.1"><rect x="0" y="0" width="900" height="450" fill="#fff"></rect><path d="M404 0L449.7 18.8C495.3 37.7 586.7 75.3 613.5 112.8C640.3 150.3 602.7 187.7 573.3 225.2C544 262.7 523 300.3 543.8 337.8C564.7 375.3 627.3 412.7 658.7 431.3L690 450L0 450L0 431.3C0 412.7 0 375.3 0 337.8C0 300.3 0 262.7 0 225.2C0 187.7 0 150.3 0 112.8C0 75.3 0 37.7 0 18.8L0 0Z" fill="#1c6a70"></path><path d="M494 0L500.3 18.8C506.7 37.7 519.3 75.3 514.3 112.8C509.3 150.3 486.7 187.7 469.3 225.2C452 262.7 440 300.3 422.5 337.8C405 375.3 382 412.7 370.5 431.3L359 450L0 450L0 431.3C0 412.7 0 375.3 0 337.8C0 300.3 0 262.7 0 225.2C0 187.7 0 150.3 0 112.8C0 75.3 0 37.7 0 18.8L0 0Z" fill="#115b60"></path><path d="M186 0L193.8 18.8C201.7 37.7 217.3 75.3 238.3 112.8C259.3 150.3 285.7 187.7 293.5 225.2C301.3 262.7 290.7 300.3 261.5 337.8C232.3 375.3 184.7 412.7 160.8 431.3L137 450L0 450L0 431.3C0 412.7 0 375.3 0 337.8C0 300.3 0 262.7 0 225.2C0 187.7 0 150.3 0 112.8C0 75.3 0 37.7 0 18.8L0 0Z" fill="#044c51"></path></svg>