<svg id="visual" viewBox="0 0 960 540" width="960" height="540" xmlns="http://www.w3.org/2000/svg" xmlns:xlink="http://www.w3.org/1999/xlink" version="1.1"><rect x="0" y="0" width="960" height="540" fill="#fff"></rect><path d="M612 0L593.2 22.5C574.3 45 536.7 90 532 135C527.3 180 555.7 225 569 270C582.3 315 580.7 360 604.8 405C629 450 679 495 704 517.5L729 540L0 540L0 517.5C0 495 0 450 0 405C0 360 0 315 0 270C0 225 0 180 0 135C0 90 0 45 0 22.5L0 0Z" fill="#1c6a70"></path><path d="M454 0L447.5 22.5C441 45 428 90 439 135C450 180 485 225 461 270C437 315 354 360 341.8 405C329.7 450 388.3 495 417.7 517.5L447 540L0 540L0 517.5C0 495 0 450 0 405C0 360 0 315 0 270C0 225 0 180 0 135C0 90 0 45 0 22.5L0 0Z" fill="#115b60"></path><path d="M149 0L162.3 22.5C175.7 45 202.3 90 218.2 135C234 180 239 225 221.3 270C203.7 315 163.3 360 176.2 405C189 450 255 495 288 517.5L321 540L0 540L0 517.5C0 495 0 450 0 405C0 360 0 315 0 270C0 225 0 180 0 135C0 90 0 45 0 22.5L0 0Z" fill="#044c51"></path></svg>