<svg id="visual" viewBox="0 0 960 540" width="960" height="540" xmlns="http://www.w3.org/2000/svg" xmlns:xlink="http://www.w3.org/1999/xlink" version="1.1"><rect x="0" y="0" width="960" height="540" fill="#fff"></rect><path d="M660 0L674.3 22.5C688.7 45 717.3 90 700.3 135C683.3 180 620.7 225 623.7 270C626.7 315 695.3 360 712.7 405C730 450 696 495 679 517.5L662 540L0 540L0 517.5C0 495 0 450 0 405C0 360 0 315 0 270C0 225 0 180 0 135C0 90 0 45 0 22.5L0 0Z" fill="#1c6a70"></path><path d="M285 0L299.7 22.5C314.3 45 343.7 90 355.7 135C367.7 180 362.3 225 353.8 270C345.3 315 333.7 360 365.2 405C396.7 450 471.3 495 508.7 517.5L546 540L0 540L0 517.5C0 495 0 450 0 405C0 360 0 315 0 270C0 225 0 180 0 135C0 90 0 45 0 22.5L0 0Z" fill="#115b60"></path><path d="M158 0L170.2 22.5C182.3 45 206.7 90 221.7 135C236.7 180 242.3 225 235.5 270C228.7 315 209.3 360 219.8 405C230.3 450 270.7 495 290.8 517.5L311 540L0 540L0 517.5C0 495 0 450 0 405C0 360 0 315 0 270C0 225 0 180 0 135C0 90 0 45 0 22.5L0 0Z" fill="#044c51"></path></svg>