<svg id="visual" viewBox="0 0 540 960" width="540" height="960" xmlns="http://www.w3.org/2000/svg" xmlns:xlink="http://www.w3.org/1999/xlink" version="1.1"><rect x="0" y="0" width="540" height="960" fill="#fff"></rect><path d="M0 447L22.5 439C45 431 90 415 135 405.8C180 396.7 225 394.3 270 397.8C315 401.3 360 410.7 405 390.7C450 370.7 495 321.3 517.5 296.7L540 272L540 961L517.5 961C495 961 450 961 405 961C360 961 315 961 270 961C225 961 180 961 135 961C90 961 45 961 22.5 961L0 961Z" fill="#1c6a70"></path><path d="M0 626L22.5 611.5C45 597 90 568 135 566.5C180 565 225 591 270 604C315 617 360 617 405 597.3C450 577.7 495 538.3 517.5 518.7L540 499L540 961L517.5 961C495 961 450 961 405 961C360 961 315 961 270 961C225 961 180 961 135 961C90 961 45 961 22.5 961L0 961Z" fill="#105c61"></path><path d="M0 706L22.5 721.3C45 736.7 90 767.3 135 783.2C180 799 225 800 270 772.3C315 744.7 360 688.3 405 689C450 689.7 495 747.3 517.5 776.2L540 805L540 961L517.5 961C495 961 450 961 405 961C360 961 315 961 270 961C225 961 180 961 135 961C90 961 45 961 22.5 961L0 961Z" fill="#034e53"></path></svg>