<svg id="visual" viewBox="0 0 900 450" width="900" height="450" xmlns="http://www.w3.org/2000/svg" xmlns:xlink="http://www.w3.org/1999/xlink" version="1.1"><rect x="0" y="0" width="900" height="450" fill="#fff"></rect><path d="M481 0L488.5 18.8C496 37.7 511 75.3 519.7 112.8C528.3 150.3 530.7 187.7 527.3 225.2C524 262.7 515 300.3 533.7 337.8C552.3 375.3 598.7 412.7 621.8 431.3L645 450L0 450L0 431.3C0 412.7 0 375.3 0 337.8C0 300.3 0 262.7 0 225.2C0 187.7 0 150.3 0 112.8C0 75.3 0 37.7 0 18.8L0 0Z" fill="#1c6a70"></path><path d="M314 0L327.3 18.8C340.7 37.7 367.3 75.3 368.5 112.8C369.7 150.3 345.3 187.7 333.2 225.2C321 262.7 321 300.3 339.5 337.8C358 375.3 395 412.7 413.5 431.3L432 450L0 450L0 431.3C0 412.7 0 375.3 0 337.8C0 300.3 0 262.7 0 225.2C0 187.7 0 150.3 0 112.8C0 75.3 0 37.7 0 18.8L0 0Z" fill="#105c61"></path><path d="M238 0L223.7 18.8C209.3 37.7 180.7 75.3 165.8 112.8C151 150.3 150 187.7 176 225.2C202 262.7 255 300.3 254.5 337.8C254 375.3 200 412.7 173 431.3L146 450L0 450L0 431.3C0 412.7 0 375.3 0 337.8C0 300.3 0 262.7 0 225.2C0 187.7 0 150.3 0 112.8C0 75.3 0 37.7 0 18.8L0 0Z" fill="#034e53"></path></svg>