<svg id="visual" viewBox="0 0 675 900" width="675" height="900" xmlns="http://www.w3.org/2000/svg" xmlns:xlink="http://www.w3.org/1999/xlink" version="1.1"><rect x="0" y="0" width="675" height="900" fill="#fff"></rect><path d="M0 419L28.2 411.5C56.3 404 112.7 389 169 380.3C225.3 371.7 281.7 369.3 337.8 372.7C394 376 450 385 506.2 366.3C562.3 347.7 618.7 301.3 646.8 278.2L675 255L675 901L646.8 901C618.7 901 562.3 901 506.2 901C450 901 394 901 337.8 901C281.7 901 225.3 901 169 901C112.7 901 56.3 901 28.2 901L0 901Z" fill="#1c6a70"></path><path d="M0 586L28.2 572.7C56.3 559.3 112.7 532.7 169 531.5C225.3 530.3 281.7 554.7 337.8 566.8C394 579 450 579 506.2 560.5C562.3 542 618.7 505 646.8 486.5L675 468L675 901L646.8 901C618.7 901 562.3 901 506.2 901C450 901 394 901 337.8 901C281.7 901 225.3 901 169 901C112.7 901 56.3 901 28.2 901L0 901Z" fill="#105c61"></path><path d="M0 662L28.2 676.3C56.3 690.7 112.7 719.3 169 734.2C225.3 749 281.7 750 337.8 724C394 698 450 645 506.2 645.5C562.3 646 618.7 700 646.8 727L675 754L675 901L646.8 901C618.7 901 562.3 901 506.2 901C450 901 394 901 337.8 901C281.7 901 225.3 901 169 901C112.7 901 56.3 901 28.2 901L0 901Z" fill="#034e53"></path></svg>